<svg xmlns="http://www.w3.org/2000/svg" version="1.1" viewBox="38 679 1911 544"><path transform="translate(549,764)" d="m0 0 18 1 11 3 14 7 10 8 9 12 5 11 4 18 1 15v165l-1 23-8 3h-50l-5-5-1-3-1-172-2-9-6-9-7-5-10-2h-7l-10 3-9 6-6 10-3 11-1 11-1 148-1 12-3 3-3 1h-50l-6-3-2-6-1-165-2-12-5-10-7-6-9-3h-14l-9 4-5 4-6 10-3 12-1 13-1 142-1 16-4 3-5 1h-48l-6-5-1-12v-237l3-5 9-2h35l9 1 4 3 1 3 1 32h3l2-5 5-10 7-9 4-5 14-9 16-5h27l13 4 11 7 9 9 9 14 5 10 3-4 8-13 9-10 8-7 16-8 9-2z" fill="#fff"></path><path transform="translate(144,762)" d="m0 0h12l19 2 17 4 15 6 12 8 6 5 8 10 7 14 3 11 1 7 1 21v61l1 43 4 12 6 11 8 14-1 4-7 9-8 7-10 9-13 10-2 1h-7l-12-11-8-9-8-11-5 1-2 3h-2l-2 4-11 9-11 7-11 5-12 3-10 1h-24l-15-3-16-8-12-11-7-9-6-13-3-11-1-6v-24l4-16 5-12 7-11 11-12 12-9 16-8 19-6 25-4 37-4 3-1 1-15-1-15-4-11-8-8-10-4h-18l-11 3-8 6-6 7-7 16-4 5-16-1-27-3-10-3-2-2v-8l4-13 6-12 10-13 8-8 13-9 12-6 15-5 16-3zm29 139-28 4-13 4-13 9-7 9-4 10-1 5v20l4 11 5 7 8 5 6 2h14l14-7 9-9 6-11 4-12 1-5 1-26-1-14-1-2z" fill="#fff"></path><path transform="translate(770,762)" d="m0 0h12l18 2 15 3 15 6 11 6 10 9 8 10 5 10 4 14 1 7 1 118 3 14 7 14 7 11 2 4v5l-8 9-11 9-7 7-8 7-6 4-5 1-6-3-14-14-8-12-3-3-4 1-11 11-15 11-11 5-9 3-14 2h-28l-13-3-14-7-9-7-8-8-8-16-3-9-2-10v-27l4-17 8-16 9-11 11-10 18-10 16-6 27-5 41-5 4-1 1-2v-21l-2-12-5-8-8-7-9-3h-17l-10 3-9 6-7 9-6 14-4 4h-15l-29-3-8-3-2-2-1-6 3-13 8-16 8-11 11-10 14-9 14-6 16-4 12-2zm19 140-19 3-13 4-13 9-6 8-5 12-1 6v15l3 11 4 7 8 7 8 3h13l10-4 9-7 7-8 6-12 3-12 1-10v-30l-1-2z" fill="#fff"></path><path transform="translate(1498,765)" d="m0 0h24l13 3 14 7 11 10 7 11 5 12 3 13 2 21 1 24v158l-5 5-2 1h-50l-6-3-2-8-1-156-3-20-5-10-6-5-7-3-8-1-10 2-9 6-7 8-5 12-3 14-1 14-1 144-4 5-3 1h-51l-6-5v-251l3-3 9-2h35l10 2 3 3 1 11v25h3l9-17 7-9 4-5 14-9 11-4z" fill="#fff"></path><path transform="translate(1222,765)" d="m0 0h31l14 3 16 6 14 9 10 9 5 5 8 9 8 13 7 16 6 20 4 24 1 12v23l-2 18-5 23-8 20-9 15-8 10-8 9-13 10-16 9-11 4-15 3h-28l-14-3-13-5-11-6-14-11-10-11-10-15-8-17-5-15-4-17-3-21v-29l3-23 4-17 6-16 10-19 9-12 14-14 14-9 15-6zm15 47-10 2-8 5-8 9-5 11-3 11-2 15-1 17v30l1 20 4 22 5 14 8 11 6 4 8 3h13l10-4 7-6 8-14 4-15 2-12 1-15v-37l-2-24-4-20-4-10-7-9-7-5-14-3z" fill="#fff"></path><path transform="translate(263,1058)" d="m0 0h7l12 5 12 9 14 7 12 5 16 8 29 13 17 6 18 7 24 9 22 6 20 6 59 13 37 6 32 4 22 2 46 2h20l51-2 32-3 67-11 16-4 43-10 16-5 18-6 13-5 24-7 15-7 7-2h11l5 3 2 7-6 9-9 6-17 9-13 9-18 10-14 7-18 8-29 12-19 7-34 10-32 8-62 10-24 3-14 1h-74l-22-3-47-8-11-2-27-6-42-12-29-12-24-10-34-16-24-14-17-10-25-16-18-13-19-14-12-11-8-9-1-4z" fill="#FF9900"></path><path transform="translate(963,768)" d="m0 0h24l107 1 6 2   1 2 1 9v24l-3 9-7 12-15 22-10 14-14 20-10 14-9 13-14 20-9 13v2l8 1 19 1 25 4 17 5 16 7 8 7 2 5v42l-3 5-1 1-8-1-16-7-21-7-14-3-19-2h-24l-23 3-16 4-16 6-15 7h-6l-4-6-1-40 2-11 7-14 11-15 12-17 11-16 8-12 12-17 16-23 10-15 7-10 2-5-5-1h-64l-15-1-4-5-1-3v-36l2-5 3-2z" fill="#fff"></path><path transform="translate(1862,765)" d="m0 0h24l13 3 14 7 12 11 9 12 8 17 4 14 3 24v174l-6 3h-26l-5-5-1-24-1-151-3-18-5-12-6-8-8-7-8-4-7-2h-9l-13 4-11 7-8 7-8 11-8 16-4 11-3 21-1 149-4 4-5 1h-23l-5-5-1-8v-242l2-4 3-1h22l6 1 1 2v38l4-4 7-11 9-11 9-8 14-8 9-3z" fill="#fff"></path><path transform="translate(1690,771)" d="m0 0h27l5 3 1 5v244l-2 5-6 3h-17l-10-2-3-7v-246l2-4z" fill="#fff"></path><path transform="translate(1014,1040)" d="m0 0 26 2 30 6 2 2 2 19-1 18-3 17-4 10-7 19-16 32-9 11-12 12-4 3h-4l-1-9 4-14 9-24 9-29 2-15v-15l-4-6-7-3-15-3h-34l-22 2h-30l-1-7 7-6 11-5 11-4 8-4 13-3 22-3 16-2z" fill="#FF9900"></path><path transform="translate(1702,679)" d="m0 0 11 2 6 4 6 7 2 5v9l-4 8-9 8-8 2-10-1-8-5-4-5-3-6v-11l5-9 9-6z" fill="#fff"></path><path transform="translate(1627,990)" d="m0 0h9l8 3 7 6 3 6v12l-4 8-7 6-5 2h-12l-8-4-7-8-3-9 2-9 6-8 7-4z" fill="#fff"></path></svg>